Coordinates
version=1
nRows=11
nColumns=36
inDegrees=yes

Units are S.I. units (second, meters, Newtons, ...)
If the header above contains a line with 'inDegrees', this indicates whether rotational values are in degrees (yes) or radians (no).

endheader
time	pelvis_tilt	pelvis_list	pelvis_rotation	pelvis_tx	pelvis_ty	pelvis_tz	hip_flexion_r	hip_adduction_r	hip_rotation_r	knee_angle_r	knee_angle_r_beta	ankle_angle_r	subtalar_angle_r	mtp_angle_r	hip_flexion_l	hip_adduction_l	hip_rotation_l	knee_angle_l	knee_angle_l_beta	ankle_angle_l	subtalar_angle_l	mtp_angle_l	lumbar_extension	lumbar_bending	lumbar_rotation	arm_flex_r	arm_add_r	arm_rot_r	elbow_flex_r	pro_sup_r	arm_flex_l	arm_add_l	arm_rot_l	elbow_flex_l	pro_sup_l
      1.15000000	      0.79701038	      1.61823065	      9.00088692	     -0.12315028	      1.32595329	      0.35779367	      2.70969420	     -4.84583570	      0.68931671	     10.30058787	      0.17977917	     11.30877586	     -5.36930849	     -7.49996825	     -0.22848196	     -1.41445280	      1.09241125	      6.70635760	      0.11704802	      9.04008885	      0.61794001	     -7.49996825	     -5.45936946	     -0.98182898	      2.97560664	      2.60675101	    -10.88912791	     19.70785976	     26.71575337	     80.97165414	      6.29978937	    -11.37505783	     21.46103795	     25.64719903	     89.73708149
      1.16666670	      0.87315035	      1.64524840	      8.99014032	     -0.12390010	      1.32683507	      0.35765884	      2.65115628	     -4.86078030	      0.70128772	     10.36785424	      0.18095319	     11.41575486	     -5.31448402	     -7.49997054	     -0.30134561	     -1.38234672	      1.10835721	      6.75605890	      0.11791547	      9.12701699	      0.56409306	     -7.49997054	     -5.69310159	     -0.97753895	      2.97477538	      2.44880224	    -11.04397062	     19.65660536	     27.44397127	     79.85877363	      5.99444778	    -11.59554930	     21.42346531	     26.29831723	     88.48976770
      1.18333330	      0.73719397	      1.63159701	      8.98057687	     -0.12319550	      1.32978563	      0.35796069	      2.80556378	     -4.86049448	      0.80286520	     10.48015634	      0.18291323	     11.48688464	     -5.36593529	     -7.49997704	     -0.11620152	     -1.38177136	      0.99448923	      6.89030825	      0.12025857	      9.17902248	      0.67516215	     -7.49997704	     -5.43786797	     -0.95942927	      2.93031473	      2.76980781	    -10.95685142	     20.09229355	     26.81152076	     78.89210531	      6.08908521	    -11.63577761	     22.10311328	     25.61138995	     86.94131865
      1.20000000	      0.70460043	      1.65600064	      8.93461712	     -0.12330377	      1.32995083	      0.35767613	      2.86919487	     -4.88051216	      0.81341930	     10.63260703	      0.18557400	     11.62476178	     -5.25996946	     -7.49998071	      0.00759366	     -1.34148281	      1.02770793	      7.04786761	      0.12300850	      9.16226203	      0.53498208	     -7.49998071	     -5.43271943	     -0.97874976	      3.04288702	      2.79114650	    -11.09532048	     20.21664760	     27.04149842	     80.17228643	      6.26110791	    -11.92059732	     23.14363944	     25.45041006	     88.54612991
      1.21666670	      0.66882830	      1.67130651	      8.92331275	     -0.12290943	      1.32664411	      0.35800103	      2.94304831	     -4.91827702	      0.72057226	     10.75213032	      0.18766008	     11.89680661	     -4.90909174	     -7.49998006	      0.06436875	     -1.29538402	      1.06330702	      7.13071155	      0.12445439	      9.07595303	      0.30113100	     -7.49998006	     -5.50627573	     -0.96621475	      2.79662260	      2.55873716	    -11.14161043	     19.55900141	     27.48536316	     80.02388963	      6.01330857	    -12.11879838	     22.58669480	     25.89791382	     88.46905583
      1.23333330	      0.58944273	      1.68679287	      8.81545807	     -0.12384088	      1.32735352	      0.35806403	      3.07944091	     -4.92868072	      0.91766318	     10.82715620	      0.18896952	     11.83196980	     -5.38583175	     -7.49998313	      0.22550219	     -1.26931446	      0.91303158	      7.35636331	      0.12839276	      9.23180333	      0.56770094	     -7.49998313	     -5.42409504	     -1.03985371	      2.79829723	      2.51074467	    -11.16317049	     19.58543430	     27.47834501	     79.51951831	      6.34527491	    -12.25719631	     23.19544784	     25.58029320	     87.97244188
      1.25000000	      0.56751678	      1.67737980	      8.80216735	     -0.12286849	      1.33314715	      0.35820701	      3.13053858	     -4.93134958	      0.89805293	     10.87838936	      0.18986371	     11.89913484	     -5.41217025	     -7.49998318	      0.25768849	     -1.27722806	      0.83728937	      7.44927958	      0.13001446	      9.18257967	      0.52345820	     -7.49998318	     -5.49032904	     -1.01937456	      2.65598487	      2.30414748	    -11.24909018	     19.57566351	     27.46714287	     79.52279833	      6.42703063	    -12.42190941	     23.18603595	     25.62536123	     87.97096214
      1.26666670	      0.55534118	      1.68892777	      8.76857025	     -0.12386726	      1.33718680	      0.35802220	      3.15614836	     -4.96550825	      0.90678461	     10.89584702	      0.19016841	     12.00673529	     -5.46066344	     -7.49998322	      0.25005174	     -1.25798695	      0.78871034	      7.53419748	      0.13149655	      9.07930895	      0.49925367	     -7.49998322	     -5.58050591	     -1.02359616	      2.46850802	      2.04789897	    -11.36196087	     19.54906957	     27.44431522	     79.54304479	      6.48820425	    -12.64996770	     23.18859731	     25.61377981	     88.00686771
      1.28333330	      0.47176141	      1.69827186	      8.75273230	     -0.12986350	      1.33562236	      0.36165089	      3.39103900	     -4.97146821	      0.87426861	     11.04828216	      0.19282890	     12.11566625	     -5.47919159	     -7.49998478	      0.57535364	     -1.22798983	      0.89068844	      7.85990706	      0.13718126	      8.97866604	      0.10034533	     -7.49998478	     -5.95057437	     -1.08130093	      2.67420480	      0.82551807	    -11.70787969	     17.95255819	     29.53871038	     80.39462350	      6.79997685	    -13.24697757	     24.35051837	     26.30880363	     89.57997459
      1.30000000	      0.39795325	      1.65807797	      8.73090424	     -0.13034304	      1.33284015	      0.36135242	      3.66360238	     -4.93690460	      0.86776587	     11.31606522	      0.19750260	     12.18201186	     -5.53050363	     -7.49998697	      0.86133471	     -1.26961926	      0.88498569	      8.19697243	      0.14306416	      9.10969729	      0.02128836	     -7.49998697	     -6.43513426	     -0.98373944	      2.48053568	      0.31002411	    -12.05577485	     17.50717146	     30.48660091	     79.00766077	      6.33295533	    -13.86802460	     24.24785433	     26.82451353	     87.81816496
      1.31666670	      0.33289621	      1.68874214	      8.62769697	     -0.13009210	      1.33502800	      0.35532371	      3.83346278	     -5.00480820	      0.87824528	     11.39260163	      0.19883841	     12.12377230	     -5.50489019	     -7.49998698	      1.02699668	     -1.18038612	      0.90604700	      8.32201843	      0.14524662	      9.10856657	      0.02137327	     -7.49998698	     -6.91219636	     -0.91371063	      2.52251650	     -0.17985640	    -12.35005510	     17.46813325	     30.26057999	     79.01372229	      5.87184299	    -14.32143798	     24.23112411	     26.53393051	     87.83580404
